PathFileType	4	(X/Y/Z)	Patient4_TMGait_0pt3_03_left_08.trc.trc
DataRate	CameraRate	NumFrames	NumMarkers	Units	OrigDataRate	OrigDataStartFrame	OrigNumFrames
51.660516605166	51.660516605166	4	33	mm	51.660516605166	106	       141
Frame#	Time	Sacral			L.Shoulder			Chest			R.Shoulder			Neck			R.ASIS			L.ASIS			R.Thigh.Superior			R.Thigh.Lateral			R.Thigh.Inferior			R.Patella			L.Thigh.Superior			L.Thigh.Lateral			L.Thigh.Inferior			L.Patella			L.Shank.Superior			L.Shank.Lateral			L.Shank.Inferior			R.Shank.Superior			R.Shank.Lateral			R.Shank.Inferior			R.Heel			R.Midfoot.Superior			R.Midfoot.Lateral			R.Toe			L.Heel			L.Midfoot.Lateral			L.Midfoot.Superior			L.Toe			L.Elbow			L.Wrist			R.Elbow			R.Wrist			
		X1	Y1	Z1	X2	Y2	Z2	X3	Y3	Z3	X4	Y4	Z4	X5	Y5	Z5	X6	Y6	Z6	X7	Y7	Z7	X8	Y8	Z8	X9	Y9	Z9	X10	Y10	Z10	X11	Y11	Z11	X12	Y12	Z12	X13	Y13	Z13	X14	Y14	Z14	X15	Y15	Z15	X16	Y16	Z16	X17	Y17	Z17	X18	Y18	Z18	X19	Y19	Z19	X20	Y20	Z20	X21	Y21	Z21	X22	Y22	Z22	X23	Y23	Z23	X24	Y24	Z24	X25	Y25	Z25	X26	Y26	Z26	X27	Y27	Z27	X28	Y28	Z28	X29	Y29	Z29	X30	Y30	Z30	X31	Y31	Z31	X32	Y32	Z32	X33	Y33	Z33	

106	16.142500000000	769.950791524817	991.294287225428	565.945182999560	952.032711254322	1421.835282497522	384.111226392610	1054.026483964696	1352.537561482705	544.437011192215	973.176709677882	1425.642927171007	719.388941368056	935.107320068757	1483.419417896277	542.460609000990	1006.313811735727	928.021802923720	674.362352286798	981.195962023818	954.583542780871	402.627505630409	1056.773501277238	732.684529356463	631.298513847351	982.089158183387	614.479508945897	682.202107072661	1061.276021233437	570.948850442304	598.161309481852	1064.738182671622	475.155473681767	599.311596249333	1064.524895720410	767.972636080457	429.470484743381	1019.752820299687	641.142533952845	350.504724066844	1119.560484398809	576.612207476598	415.956948865931	1129.905782736684	487.103358671221	403.565385257170	1063.207027387177	422.977500416773	389.568626253569	921.072632927358	380.939566833215	342.088681033745	915.483280960724	246.591986461297	384.180360266635	1019.450149454525	388.578648115903	601.479864103940	933.306153529101	293.861627918248	658.838326030218	957.554694665188	197.556840368254	590.932490452942	800.429614687681	45.322292298506	554.491342586121	970.559146387268	94.744378179595	594.735553385097	881.190176272457	37.928302314737	632.088380791682	1089.729913020123	40.594870197820	629.712246111141	729.785045043026	167.898444329808	423.485398850890	785.378213254928	135.813767658084	335.713713893430	890.909542557632	148.959180277404	353.428055766171	973.867529771943	46.279304254635	307.848090814855	920.415156813582	1067.477198254957	272.803905422891	979.012857056878	813.094764241060	265.310235596065	980.173499745265	1081.111916583893	855.939343203962	1147.118785385019	883.206842095267	886.907735223178	
107	16.161857142857	768.795202257800	990.333810736338	569.803378610432	946.987976092363	1421.006135886748	385.418539466460	1052.436009727423	1351.888634957427	543.598881830125	975.227319342548	1424.934071860499	720.277357206577	933.579798582114	1482.643218504551	543.841623876945	1006.574055245344	926.885891164971	674.396540051152	977.572624434222	954.372396298899	403.193268650795	1056.050061742825	731.395353615548	630.360834884983	982.074277854505	613.130358835348	681.997967218226	1060.079205115582	569.676870046077	596.832499314697	1063.244025791624	473.634380244692	597.719330134214	1063.642029007268	770.601755605286	430.749697630364	1021.774341067930	643.164405284867	351.634477278262	1122.257231586551	580.498891884077	417.589481874182	1135.131902844239	491.823153877608	404.774696368188	1071.422616750155	425.920138014651	390.166431904123	931.772900970619	377.072214719274	342.937448766825	933.498592115151	242.451948293290	384.158721538331	1017.002380127168	387.197573879602	600.391908695952	930.478488513905	293.194538536792	658.430598985782	953.162245715786	196.739268582746	590.330017805701	794.575824090257	45.304140537918	554.579936148746	964.605858779640	94.455164689685	594.267886989111	875.376594254174	37.897412196737	632.154208006862	1083.907695419179	40.525414807050	629.692457947059	752.923703600511	153.751555250425	423.973816818884	809.564484525097	125.551223727223	335.551855591260	914.086118769318	144.089440427914	352.848219847872	1001.987993501938	46.784379959824	305.855541156611	901.723952534728	1067.450521504265	276.436540880670	946.502559532176	810.316002582793	270.647546523744	993.834520607785	1080.867462090924	856.917909939390	1173.489005027972	894.311478217431	884.086519962760	
108	16.181214285714	767.670179133735	989.914265432905	573.511259088994	942.014835261764	1420.642235464168	386.625443921176	1050.901823485208	1351.607823263358	542.535465134127	977.427187010476	1424.608272485054	720.879692377937	932.124257366842	1482.252563316617	545.048028855492	1006.748316969483	926.084379627507	674.180320863849	973.909403471895	954.475697001057	403.527195260332	1054.761693479593	730.250823126175	629.374589741314	981.242548488297	612.115842050407	681.875702107506	1057.931043286084	568.559262432929	595.609588916996	1060.668798068412	472.425181329988	596.326726498026	1061.998851766673	773.070220569764	431.611363579642	1022.438662619740	645.192555262387	352.362674368561	1123.424942686321	584.093292209563	418.631254637852	1138.717933458242	496.594085539850	405.514752504983	1078.494957387233	428.976522740622	390.386719341602	942.247774496535	372.400335217118	343.095855762435	952.140238429455	237.947238408957	383.715687823362	1013.684280398131	386.123261386482	599.490011461816	926.975639560281	292.641971997396	658.155536146452	948.398434037966	196.101319796526	589.868228911669	788.714461577166	45.272808169652	554.708886718787	958.695233687932	94.265462268266	593.975062176884	869.552031032641	37.858268592967	632.241527924701	1078.070969438132	40.466521386000	629.663960872547	777.729830986248	138.466514339524	423.704252135366	835.668015077068	114.233886693121	334.941739366025	938.770385451528	138.776872049921	352.039039822281	1032.041810168514	47.486977275174	304.316129626699	883.173743870658	1068.552975708582	279.925934484715	915.305197647613	809.658036922096	276.118926829841	1007.341350643257	1081.376664975717	857.250399182658	1199.312206581749	907.383588114639	879.980209810940	
109	16.200571428571	766.560548550316	990.076124154119	577.034862059784	937.206593153794	1420.781782649238	387.728602648186	1049.450163140727	1351.709091105229	541.273392156724	979.759803744759	1424.683404497332	721.195266122680	930.779955160683	1482.271370967731	546.087834152154	1006.815764332655	925.658677134112	673.739760884705	970.237283386069	954.917142904605	403.637539173814	1052.882979016601	729.282049163815	628.396308044237	979.538454146304	611.469837877116	681.869779564684	1054.794453635106	567.625134150295	594.552493357586	1056.970934810666	471.556851610654	595.200827172604	1059.645089005039	775.362459663454	432.075394616591	1021.773981646800	647.182089177662	352.688662556721	1123.128771707559	587.333388650376	419.065640496665	1140.690898738880	501.345216761862	405.801693200368	1084.375058180392	432.147577790907	390.274903210112	952.504480982577	367.230010320814	342.561456524802	971.124367875471	233.500901111006	382.918148413010	1009.463459308262	385.388137258471	598.822193479040	922.755570300614	292.224386721108	658.032003150765	943.244551290154	195.663433418023	589.564228121133	782.843530511034	45.226862633529	554.875298278720	952.839094353154	94.196788436999	593.888283963684	863.713898680262	37.813820934334	632.349876809796	1072.217216411492	40.424297285113	629.628884416944	803.846376398219	122.913420106033	422.695803529860	863.314053070610	102.623469315332	333.946254509696	964.546164051812	133.543910183463	351.103093382610	1063.377731544521	48.715170941516	303.421290464292	865.060725447889	1070.796299177332	283.269848023703	885.689480845375	810.909982889983	281.691400435400	1020.697405308610	1082.645353891885	856.958184583012	1224.333861340758	922.327809706126	874.692210121737	
